<?xml version="1.0" encoding="iso-8859-1"?>
<!-- Uploaded to: SVG Repo, www.svgrepo.com, Generator: SVG Repo Mixer Tools -->
<svg version="1.1" id="Layer_1" xmlns="http://www.w3.org/2000/svg" xmlns:xlink="http://www.w3.org/1999/xlink" 
	 viewBox="0 0 512 512" xml:space="preserve">
<rect x="8.881" y="348.887" style="fill:#FFDB56;" width="78.583" height="149.658"/>
<rect x="51.942" y="348.887" style="fill:#FBA806;" width="35.526" height="149.658"/>
<rect x="8.881" y="348.887" style="fill:#F77935;" width="78.583" height="43.225"/>
<rect x="51.942" y="348.887" style="fill:#D9510D;" width="35.526" height="43.225"/>
<rect x="8.881" y="392.121" style="fill:#3FC8F2;" width="78.583" height="42.643"/>
<rect x="51.942" y="392.121" style="fill:#0DAACE;" width="35.526" height="42.643"/>
<rect x="147.432" y="214.043" style="fill:#FFDB56;" width="78.583" height="284.502"/>
<rect x="190.489" y="214.043" style="fill:#FBA806;" width="35.526" height="284.502"/>
<rect x="147.432" y="214.043" style="fill:#F77935;" width="78.583" height="43.225"/>
<rect x="190.489" y="214.043" style="fill:#D9510D;" width="35.526" height="43.225"/>
<rect x="147.432" y="257.266" style="fill:#3FC8F2;" width="78.583" height="42.643"/>
<rect x="190.489" y="257.266" style="fill:#0DAACE;" width="35.526" height="42.643"/>
<rect x="285.982" y="348.887" style="fill:#FFDB56;" width="78.583" height="149.658"/>
<rect x="332.592" y="348.887" style="fill:#FBA806;" width="31.973" height="149.658"/>
<rect x="285.982" y="348.887" style="fill:#F77935;" width="78.583" height="43.225"/>
<rect x="332.378" y="348.887" style="fill:#D9510D;" width="32.186" height="43.225"/>
<rect x="285.982" y="392.121" style="fill:#3FC8F2;" width="78.583" height="42.643"/>
<rect x="332.378" y="392.121" style="fill:#0DAACE;" width="32.186" height="42.643"/>
<rect x="424.532" y="154.608" style="fill:#FFDB56;" width="78.583" height="343.936"/>
<rect x="469.958" y="154.608" style="fill:#FBA806;" width="33.157" height="343.936"/>
<rect x="424.532" y="154.608" style="fill:#F77935;" width="78.583" height="43.225"/>
<rect x="469.958" y="154.608" style="fill:#D9510D;" width="33.157" height="43.225"/>
<rect x="424.532" y="197.831" style="fill:#3FC8F2;" width="78.583" height="42.643"/>
<rect x="469.958" y="197.831" style="fill:#0DAACE;" width="33.157" height="42.643"/>
<g>
	<circle style="fill:#F77935;" cx="41.07" cy="219.147" r="29.183"/>
	<circle style="fill:#F77935;" cx="186.723" cy="89.407" r="29.183"/>
	<circle style="fill:#F77935;" cx="325.273" cy="166.971" r="29.183"/>
	<circle style="fill:#F77935;" cx="463.824" cy="42.631" r="29.183"/>
</g>
<path d="M87.468,340.011H8.881c-4.905,0-8.881,3.975-8.881,8.881v43.225v42.637v63.795c0,4.906,3.977,8.881,8.881,8.881h78.586
	c4.905,0,8.881-3.975,8.881-8.881v-63.795v-42.637v-43.225C96.349,343.987,92.373,340.011,87.468,340.011z M78.586,357.774v25.462
	H17.763v-25.462H78.586z M78.586,425.873H17.763v-24.874h60.824V425.873z M17.763,489.668v-46.032h60.824v46.032H17.763z"/>
<path d="M226.018,205.163h-78.586c-4.905,0-8.881,3.975-8.881,8.881v43.225v42.636v62.462c0,4.906,3.977,8.881,8.881,8.881
	c4.905,0,8.881-3.975,8.881-8.881v-53.581h60.824v180.881h-60.824v-91.775c0-4.906-3.977-8.881-8.881-8.881
	c-4.905,0-8.881,3.975-8.881,8.881v100.656c0,4.906,3.977,8.881,8.881,8.881h78.586c4.905,0,8.881-3.975,8.881-8.881V299.905
	v-42.636v-43.225C234.9,209.138,230.923,205.163,226.018,205.163z M156.313,222.926h60.824v25.462h-60.824V222.926z
	 M156.313,291.024v-24.873h60.824v24.873H156.313z"/>
<path d="M364.568,340.011h-78.586c-4.905,0-8.881,3.975-8.881,8.881v43.225v42.637v63.795c0,4.906,3.977,8.881,8.881,8.881h78.586
	c4.905,0,8.881-3.975,8.881-8.881v-63.795v-42.637v-43.225C373.45,343.987,369.473,340.011,364.568,340.011z M355.687,357.774
	v25.462h-60.824v-25.462H355.687z M355.687,425.873h-60.824v-24.874h60.824V425.873z M294.863,489.668v-46.032h60.824v46.032
	H294.863z"/>
<path d="M503.119,145.727h-78.586c-4.905,0-8.881,3.975-8.881,8.881v43.226v42.636v165.487c0,4.906,3.977,8.881,8.881,8.881
	s8.881-3.975,8.881-8.881V249.352h60.824v240.315h-60.824v-48.184c0-4.906-3.977-8.881-8.881-8.881s-8.881,3.975-8.881,8.881v57.065
	c0,4.906,3.977,8.881,8.881,8.881h78.586c4.905,0,8.881-3.975,8.881-8.881V240.471v-42.636v-43.227
	C512,149.704,508.023,145.727,503.119,145.727z M494.237,163.49v25.464h-60.824V163.49H494.237z M433.414,231.589v-24.873h60.824
	v24.873H433.414z"/>
<path d="M41.07,257.211c20.99,0,38.066-17.076,38.066-38.066c0-6.47-1.627-12.567-4.488-17.909l89.575-81.15
	c6.308,4.64,14.089,7.388,22.503,7.388c11.219,0,21.317-4.881,28.289-12.628l73.2,43.475c-0.649,2.782-1.004,5.675-1.004,8.652
	c0,20.99,17.076,38.066,38.066,38.066s38.066-17.076,38.066-38.066c0-5.857-1.332-11.408-3.707-16.37l83.268-76.193
	c6.009,3.969,13.199,6.289,20.923,6.289c20.99,0,38.066-17.076,38.066-38.065S484.816,4.569,463.826,4.569
	c-20.99,0-38.066,17.076-38.066,38.066c0,6.841,1.822,13.259,4.995,18.813l-82.332,75.338c-6.419-4.933-14.445-7.876-23.147-7.876
	c-11.637,0-22.066,5.255-29.054,13.51l-72.722-43.192c0.837-3.133,1.291-6.423,1.291-9.818c0-20.99-17.076-38.065-38.066-38.065
	S148.66,68.422,148.66,89.41c0,6.152,1.475,11.963,4.078,17.11l-89.887,81.434c-6.177-4.326-13.685-6.874-21.781-6.874
	c-20.99,0-38.065,17.076-38.065,38.066S20.08,257.211,41.07,257.211z M463.826,22.333c11.195,0,20.303,9.108,20.303,20.303
	s-9.108,20.303-20.303,20.303c-11.195,0-20.303-9.108-20.303-20.303S452.631,22.333,463.826,22.333z M325.276,146.673
	c11.195,0,20.303,9.108,20.303,20.302s-9.108,20.303-20.303,20.303c-11.195,0-20.303-9.108-20.303-20.303
	C304.973,155.782,314.08,146.673,325.276,146.673z M186.725,69.109c11.195,0,20.303,9.108,20.303,20.302
	s-9.108,20.303-20.303,20.303s-20.303-9.108-20.303-20.303S175.53,69.109,186.725,69.109z M41.07,198.844
	c5.69,0,10.832,2.36,14.522,6.144c0.214,0.308,0.443,0.609,0.701,0.894c0.208,0.23,0.427,0.445,0.654,0.648
	c2.763,3.468,4.425,7.85,4.425,12.618c0,11.194-9.108,20.303-20.303,20.303s-20.302-9.108-20.302-20.303
	C20.767,207.951,29.875,198.844,41.07,198.844z"/>
</svg>